<?xml version="1.0" encoding="UTF-8" standalone="no"?>
<!-- Created with Inkscape (http://www.inkscape.org/) -->

<svg
   xmlns:dc="http://purl.org/dc/elements/1.1/"
   xmlns:cc="http://creativecommons.org/ns#"
   xmlns:rdf="http://www.w3.org/1999/02/22-rdf-syntax-ns#"
   xmlns:svg="http://www.w3.org/2000/svg"
   xmlns="http://www.w3.org/2000/svg"
   xmlns:sodipodi="http://sodipodi.sourceforge.net/DTD/sodipodi-0.dtd"
   xmlns:inkscape="http://www.inkscape.org/namespaces/inkscape"
   width="889px"
   height="809px"
   viewBox="0 0 889 809"
   version="1.1"
   id="SVGRoot"
   inkscape:version="0.92.3 (2405546, 2018-03-11)"
   sodipodi:docname="BA_logo.svg">
  <sodipodi:namedview
     id="base"
     pagecolor="#ffffff"
     bordercolor="#666666"
     borderopacity="1.0"
     inkscape:pageopacity="0.0"
     inkscape:pageshadow="2"
     inkscape:zoom="0.35"
     inkscape:cx="444.5"
     inkscape:cy="404.5"
     inkscape:document-units="px"
     inkscape:current-layer="layer1"
     showgrid="false"
     inkscape:window-width="1920"
     inkscape:window-height="1017"
     inkscape:window-x="-8"
     inkscape:window-y="-8"
     inkscape:window-maximized="1" />
  <defs
     id="defs1441" />
  <metadata
     id="metadata1444">
    <rdf:RDF>
      <cc:Work
         rdf:about="">
        <dc:format>image/svg+xml</dc:format>
        <dc:type
           rdf:resource="http://purl.org/dc/dcmitype/StillImage" />
        <dc:title></dc:title>
      </cc:Work>
    </rdf:RDF>
  </metadata>
  <g
     id="layer1"
     inkscape:groupmode="layer"
     inkscape:label="Layer 1">
    <g
       id="g869"
       transform="matrix(0.99775701,0,0,0.99775701,-508.87414,-179.03983)">
      <g
         id="g850">
        <path
           style="fill:#eae6da;fill-opacity:1;stroke:#eae6da;stroke-width:1px;stroke-linecap:butt;stroke-linejoin:miter;stroke-opacity:1"
           d="M 864.28572,706.42857 V 317.85714 h -107.5 l -2.60552,12.8753 c 12.67817,18.59914 13.16746,40.53928 15.56873,59.33337 h 8.44734 l 16.36712,-53.30897 c 2.05028,-7.65176 9.80093,-6.4163 15.83149,-6.4163 v 100.15678 l 1.75269,10.68923 -0.60168,86.99453 c 0,13.94064 2.16763,54.43274 26.84697,73.06892 h -34.46429 z"
           id="path6157"
           inkscape:connector-curvature="0"
           sodipodi:nodetypes="cccccccccccccc" />
        <path
           style="fill:#eae6da;fill-opacity:1;stroke:#eae6da;stroke-width:1px;stroke-linecap:butt;stroke-linejoin:miter;stroke-opacity:1"
           d="M 1034.217,706.45492 V 317.88349 h 107.5 l 2.6055,12.8753 c -12.6781,18.59914 -13.1674,40.53928 -15.5687,59.33337 h -8.4473 l -16.3672,-53.30897 c -2.0502,-7.65176 -9.8009,-6.4163 -15.8314,-6.4163 v 100.15678 l -1.7527,10.68923 0.6017,86.99453 c 0,13.94064 -2.1677,54.43274 -26.847,73.06892 h 34.4643 z"
           id="path6157-7"
           inkscape:connector-curvature="0"
           sodipodi:nodetypes="cccccccccccccc" />
        <path
           style="fill:#eae6da;fill-opacity:1;stroke:#eae6da;stroke-width:1px;stroke-linecap:butt;stroke-linejoin:miter;stroke-opacity:1"
           d="m 756.071,307.85714 h 108.21472 c 0,0 7.57119,-75 84.99999,-75 77.42879,0 84.99999,75 84.99999,75 h 107.8572 v -10.71428 h -54.2858 c 0,0 -18.2208,-117.14286 -138.74998,-117.14286 -120.52915,0 -138.74998,117.14286 -138.74998,117.14286 H 756.071 Z"
           id="path6174"
           inkscape:connector-curvature="0"
           sodipodi:nodetypes="cczcccczccc" />
        <path
           style="fill:#eae6da;fill-opacity:1;stroke:#eae6da;stroke-width:1px;stroke-linecap:butt;stroke-linejoin:miter;stroke-opacity:1"
           d="M 810.39488,430.49732 H 604.28572 l 51.42857,39.14554 v -28.57143 h 158.57143 z"
           id="path6176"
           inkscape:connector-curvature="0" />
        <path
           style="fill:#eae6da;fill-opacity:1;stroke:#eae6da;stroke-width:1px;stroke-linecap:butt;stroke-linejoin:miter;stroke-opacity:1"
           d="m 1088.1079,430.52367 h 206.1092 l -51.4285,39.14554 v -28.57143 h -158.5715 z"
           id="path6176-6"
           inkscape:connector-curvature="0" />
        <path
           style="fill:#eae6da;fill-opacity:1;stroke:#eae6da;stroke-width:1px;stroke-linecap:butt;stroke-linejoin:miter;stroke-opacity:1"
           d="m 864.10714,430.17857 c 14.92404,0 71.32253,-3.89948 85.08886,47.47717 13.88694,-51.82678 74.5606,-47.47717 85.0897,-47.47717 V 441.25 c -34.68487,0 -78.0357,4.69827 -78.0357,78.036 v 303.44077 h 33.95203 l -39.39889,29.63487 -38.20057,-29.57173 h 30.87991 V 519.286 c 0,-78.73382 -49.47865,-78.93353 -78.8866,-78.93353 z"
           id="path6193"
           inkscape:connector-curvature="0"
           sodipodi:nodetypes="ccccccccccccc" />
        <path
           style="fill:#eae6da;fill-opacity:1;stroke:#eae6da;stroke-width:1px;stroke-linecap:butt;stroke-linejoin:miter;stroke-opacity:1"
           d="m 914.64285,908.75 c 12.96884,-13.18723 24.15512,-16.81481 29.98829,-16.41476 8.97066,0.61523 13.82353,3.07901 16.50744,6.2686 2.54104,3.01979 3.60343,5.80949 3.542,8.53987 -0.074,3.28761 -2.27405,7.6746 -6.06185,10.97283 -5.11615,4.45488 -11.85714,7.77535 -13.78179,13.58706 -1.49176,4.50457 -1.39425,11.08567 -0.90837,17.58211 -12.19541,1.3107 -27.60269,-4.36915 -32.32143,13.21429 8.16613,-6.05295 21.34865,-3.95428 33.03572,-4.28571 h 33.21428 c 6.19504,0 12.3196,-7.39707 11.96429,-11.96429 -3.5711,1.24142 -7.10511,3.25103 -12.13301,3.25103 H 952.5 c 0.11651,-7.46283 -0.84294,-12.18532 2.06866,-16.02911 2.17469,-2.87094 9.89121,-5.43618 13.7184,-9.26337 4.70138,-4.70138 6.71656,-11.55996 6.7697,-16.53128 0.0691,-6.46489 -2.60395,-12.66317 -9.8938,-17.85691 -7.93953,-5.65661 -15.83501,-6.4826 -22.51019,-5.53855 -15.06012,2.12991 -26.76631,16.29987 -28.00992,24.46819 z"
           id="path6195"
           inkscape:connector-curvature="0"
           sodipodi:nodetypes="cssssscccscscsssssc" />
        <path
           style="fill:#eae6da;fill-opacity:1;stroke:#eae6da;stroke-width:0.37795275;stroke-linecap:butt;stroke-linejoin:miter;stroke-miterlimit:4;stroke-dasharray:none;stroke-opacity:1"
           d="m 945.53572,958.39286 c -0.4003,3.08702 1.2778,6.52116 -3.62227,6.09616 -3.26726,-0.044 -2.99926,6.06951 -7.59963,4.26555 -2.72528,-1.06868 -6.16175,4.35067 -7.97453,6.424 2.50623,-0.75813 6.47451,-3.18052 8.42886,-2.02072 4.56337,2.70811 7.04135,3.53017 10.32114,-0.74714 -0.98329,1.29675 -2.53408,3.29198 -1.35807,4.10732 3.78863,2.62668 3.4837,8.70556 3.54556,13.25876 1.61819,-1.49482 5.46046,-5.60767 4.88191,-9.25753 -0.1024,-0.64599 -1.50874,-2.43065 -1.36373,-2.95103 0.57147,-2.0508 1.62209,-2.74844 1.9729,-4.08609 0.13624,1.2135 1.69446,1.89092 3.79404,2.2373 0.99575,0.16428 0.9079,-3.71912 2.05324,-3.68189 4.35304,0.14149 8.43843,2.96087 10.13486,3.89995 -1.28212,-3.48424 -3.41379,-6.56953 -5.89393,-7.564 -1.45145,-0.58199 -3.10309,0.53123 -4.53875,0.29349 -1.33708,-0.22142 -1.34506,-2.98754 -2.38071,-3.91885 -0.61747,-0.55525 -2.37713,0.83653 -2.85683,0.23414 -1.32326,-1.66171 0.12202,-4.39553 -0.49049,-6.76799 z"
           id="path6197"
           inkscape:connector-curvature="0"
           sodipodi:nodetypes="ccscscscsscsscsssscc" />
        <path
           style="fill:#eae6da;fill-opacity:1;stroke:#eae6da;stroke-width:0.24566929;stroke-linecap:butt;stroke-linejoin:miter;stroke-miterlimit:4;stroke-dasharray:none;stroke-opacity:1"
           d="m 510,427.14286 c 0.29619,-6.44896 0.77758,-22.52557 2.33244,-28.27646 0.66625,-2.46423 2.67778,-2.96696 3.0247,-0.56283 1.41078,9.77672 0.7725,12.17675 2.05358,25.17857 0.54268,5.50766 5.52545,4.64214 5.89285,-1.69643 1.91936,-13.22022 -1.19509,-35.43448 5.70583,-35.8891 2.86988,-0.18906 2.56025,5.63964 2.59775,37.04982 0.068,4.37075 2.55537,4.76395 4.12379,2.47287 2.30741,-17.43381 2.64541,-30.20904 3.71499,-37.74334 0.93513,-6.58726 3.66348,-10.71439 6.28816,-7.35398 2.73611,3.50308 -1.06212,34.40365 0.51591,45.09732 0.42884,2.90609 3.21428,1.64145 3.21428,-0.26786 l 0.61428,-4.69037 h 8.3143 c 0.35361,8.89275 0.36066,17.66998 0,26.32464 0,9.9841 -8.9649,9.46743 -16.36298,9.44717 h -17.92274 c -3.49706,-0.0565 -6.21691,1.0269 -6.16927,6.16928 v 6.16927 c -2.9023,0 -2.79197,5.53571 0,5.53571 -0.0374,2.30413 -0.15504,4.28604 -0.15504,6.14534 0,3.03437 -1.13035,4.57387 -3.85426,-0.60962 -4.66805,-9.66506 -3.99875,-20.93133 -4.10714,-31.96429 -0.0649,-3.64926 1.32512,-5.92442 5.53571,-5.53571 h 18.75 c 5.35831,0 5.34496,-4.375 0,-4.375 l -18.39285,0.0893 c -6.74343,0 -6.03756,-4.76629 -5.71429,-10.71429 z"
           id="path6199"
           inkscape:connector-curvature="0"
           sodipodi:nodetypes="cssscsccssscccccccccscccccccc" />
        <path
           style="fill:#eae6da;fill-opacity:1;stroke:#eae6da;stroke-width:0.24566929;stroke-linecap:butt;stroke-linejoin:miter;stroke-miterlimit:4;stroke-dasharray:none;stroke-opacity:1"
           d="m 558.48214,417.23214 0.44643,-26.60714 c 0,-5.73393 -6.03475,-4.21102 -6.16071,0.35714 l -2.14286,26.42857 z"
           id="path6201"
           inkscape:connector-curvature="0"
           sodipodi:nodetypes="ccccc" />
        <path
           style="fill:#eae6da;fill-opacity:1;stroke:#eae6da;stroke-width:0.24566929;stroke-linecap:butt;stroke-linejoin:miter;stroke-miterlimit:4;stroke-dasharray:none;stroke-opacity:1"
           d="m 527.67844,459.13499 c -4.41912,0 -7.64204,-1.27455 -7.32361,6.18719 v 2.90418 c 5.573,0 4.48375,7.07107 0,7.07107 v 12.12183 c 4.37564,5.18557 8.11844,7.32549 13.48529,7.32549 9.20521,0 22.95102,-6.23683 30.38238,-17.47931 10.3804,-15.70391 9.74096,-30.48445 10.68057,-44.89949 1.44341,-13.11814 -4.18037,-8.48252 -5.68211,-3.15673 -4.51915,23.72704 -12.17849,30.00855 -20.96067,30.05204 z"
           id="path6203"
           inkscape:connector-curvature="0"
           sodipodi:nodetypes="cccccsscccc" />
        <path
           style="fill:#eae6da;fill-opacity:1;stroke:#eae6da;stroke-width:0.24566929;stroke-linecap:butt;stroke-linejoin:miter;stroke-miterlimit:4;stroke-dasharray:none;stroke-opacity:1"
           d="m 1359.7916,433.75491 c -8.3873,-12.24962 -15.5829,-27.41306 -28.2842,-32.32488 -12.1736,-4.70772 -10.7201,2.02991 -9.0915,8.08121 2.5942,9.63853 1.9135,20.61128 1.8914,25.27928 -0.027,5.79665 6.1677,4.81239 8.589,4.6465 8.6354,2.60599 13.6196,1.38749 24.6225,12.87944 1.0955,1.45369 0.4934,6.00331 2.0796,6.08546 1.36,0.0704 0.3844,-4.9828 -0.4377,-6.46427 l -0.2526,-14.52094 c -1.0528,-1.9994 -5.5524,5.43579 -6.3793,4.5469 -0.7868,-0.84572 0.9818,-2.91541 3.7876,-6.52256 1.2871,-0.3262 2.2995,-0.35722 3.4752,-1.68614 z"
           id="path6205"
           inkscape:connector-curvature="0"
           sodipodi:nodetypes="csssccsccscc" />
        <path
           style="fill:#eae6da;fill-opacity:1;stroke:#eae6da;stroke-width:0.24566929;stroke-linecap:butt;stroke-linejoin:miter;stroke-miterlimit:4;stroke-dasharray:none;stroke-opacity:1"
           d="m 1362.7802,433.45913 c 8.3873,-12.24962 15.5829,-27.41306 28.2842,-32.32488 12.1736,-4.70772 10.7201,2.02991 9.0915,8.08121 -2.5942,9.63853 -1.9135,20.61128 -1.8914,25.27928 0.027,5.79665 -6.1677,4.81239 -8.589,4.6465 -8.6354,2.60599 -13.6196,1.38749 -24.6225,12.87944 -1.0955,1.45369 -0.4934,6.00331 -2.0796,6.08546 -1.36,0.0704 -0.3844,-4.9828 0.4377,-6.46427 l 0.2526,-14.52094 c 1.0528,-1.9994 5.5524,5.43579 6.3793,4.5469 0.7868,-0.84572 -0.9818,-2.91541 -3.7876,-6.52256 -1.2871,-0.3262 -2.2995,-0.35722 -3.4752,-1.68614 z"
           id="path6205-1"
           inkscape:connector-curvature="0"
           sodipodi:nodetypes="csssccsccscc" />
        <path
           style="fill:#eae6da;fill-opacity:1;stroke:#eae6da;stroke-width:0.24566929;stroke-linecap:butt;stroke-linejoin:miter;stroke-miterlimit:4;stroke-dasharray:none;stroke-opacity:1"
           d="m 1365.5369,453.45288 c 5.4035,9.17945 3.5576,15.78598 7.436,20.34105 7.0163,8.2403 17.8094,11.33956 25.2676,19.18117 -1.7164,-3.76388 -3.1382,-7.67502 -4.3747,-11.67883 -2.3153,-7.49706 1.2481,-16.49876 0.025,-24.48865 -0.7362,-4.8108 -4.3748,-8.97307 -8.7825,-13.01432 -5.2259,-4.79137 -18.8845,7.6656 -19.5717,9.65958 z"
           id="path6222"
           inkscape:connector-curvature="0"
           sodipodi:nodetypes="cscsssc" />
        <path
           style="fill:#eae6da;fill-opacity:1;stroke:#eae6da;stroke-width:0.24566929;stroke-linecap:butt;stroke-linejoin:miter;stroke-miterlimit:4;stroke-dasharray:none;stroke-opacity:1"
           d="m 1355.973,453.54238 c -5.4035,9.17945 -3.5576,15.78598 -7.436,20.34105 -7.0163,8.2403 -17.8094,11.33956 -25.2676,19.18117 1.7164,-3.76388 3.1382,-7.67502 4.3747,-11.67883 2.3153,-7.49706 -1.2481,-16.49876 -0.025,-24.48865 0.7362,-4.8108 4.3748,-8.97307 8.7825,-13.01432 5.2259,-4.79137 18.8845,7.6656 19.5717,9.65958 z"
           id="path6222-7"
           inkscape:connector-curvature="0"
           sodipodi:nodetypes="cscsssc" />
        <path
           style="fill:#eae6da;fill-opacity:1;stroke:#eae6da;stroke-width:0.24566929;stroke-linecap:butt;stroke-linejoin:miter;stroke-miterlimit:4;stroke-dasharray:none;stroke-opacity:1"
           d="m 1361.2753,428.42004 c -1.7137,0 -1.6789,4.16688 0,4.16688 1.6789,0 1.7137,-4.16688 0,-4.16688 z"
           id="path6248"
           inkscape:connector-curvature="0"
           sodipodi:nodetypes="zzz" />
      </g>
    </g>
  </g>
</svg>
